<svg width="19" height="24" viewBox="0 0 19 24" fill="none" xmlns="http://www.w3.org/2000/svg">
<path fill-rule="evenodd" clip-rule="evenodd" d="M5.8094 1.92244e-07L5.8415 4.30663e-07H13.1582L13.1903 1.92244e-07C14.0031 -7.19873e-06 14.6587 -1.32188e-05 15.1896 0.0433638C15.7363 0.0880258 16.2164 0.182385 16.6606 0.408726C17.3662 0.768251 17.9399 1.34193 18.2994 2.04754C18.5258 2.49175 18.6201 2.9719 18.6648 3.51853C18.7082 4.04946 18.7082 4.7051 18.7082 5.51798V5.55V23.25C18.7082 23.5193 18.5638 23.768 18.3298 23.9014C18.0959 24.0349 17.8084 24.0327 17.5765 23.8956L10.7466 19.8582C10.1094 19.4816 9.93393 19.3884 9.76475 19.3517C9.59017 19.3138 9.4095 19.3138 9.23492 19.3517C9.06574 19.3884 8.89027 19.4816 8.2531 19.8582L1.42316 23.8956C1.19131 24.0327 0.903778 24.0349 0.669846 23.9014C0.435914 23.768 0.291504 23.5193 0.291504 23.25V5.55L0.291504 5.51789C0.291497 4.70506 0.291491 4.04944 0.334868 3.51853C0.37953 2.9719 0.473889 2.49175 0.70023 2.04754C1.05976 1.34193 1.63343 0.768251 2.33904 0.408726C2.78326 0.182385 3.2634 0.0880258 3.81004 0.0433638C4.34095 -1.32188e-05 4.99656 -7.19873e-06 5.8094 1.92244e-07ZM3.93218 1.53838C3.47831 1.57547 3.21754 1.6446 3.02003 1.74524C2.59666 1.96095 2.25245 2.30516 2.03674 2.72852C1.9361 2.92604 1.86697 3.1868 1.82989 3.64068C1.79209 4.10331 1.7915 4.69755 1.7915 5.55V21.9354L7.48979 18.567C7.51991 18.5492 7.54963 18.5316 7.57898 18.5142C8.08364 18.2153 8.48012 17.9805 8.91703 17.8858C9.3011 17.8025 9.69857 17.8025 10.0826 17.8858C10.5196 17.9805 10.916 18.2153 11.4207 18.5142C11.4501 18.5316 11.4798 18.5492 11.5099 18.567L17.2082 21.9354V5.55C17.2082 4.69755 17.2076 4.10331 17.1698 3.64068C17.1327 3.1868 17.0636 2.92604 16.9629 2.72852C16.7472 2.30516 16.403 1.96095 15.9796 1.74524C15.7821 1.6446 15.5214 1.57547 15.0675 1.53838C14.6049 1.50058 14.0106 1.5 13.1582 1.5H5.8415C4.98905 1.5 4.39482 1.50058 3.93218 1.53838Z" fill="white"/>
</svg>
