<svg width="24" height="24" viewBox="0 0 24 24" fill="none" xmlns="http://www.w3.org/2000/svg">
<path fill-rule="evenodd" clip-rule="evenodd" d="M12 1.5C6.20101 1.5 1.5 6.20101 1.5 12C1.5 13.5253 1.95354 15.0846 2.48179 16.3749L2.48811 16.3903L2.48813 16.3903C2.76305 17.0618 2.97764 17.586 3.12796 17.9967C3.27575 18.4005 3.38644 18.759 3.41741 19.0818C3.44219 19.3402 3.45193 19.5711 3.42761 19.8143C3.40329 20.0574 3.34799 20.2819 3.27253 20.5302C3.18175 20.8289 3.03388 21.1152 2.84745 21.4256C2.67206 21.7176 2.44003 22.067 2.15139 22.5H12C17.799 22.5 22.5 17.799 22.5 12C22.5 6.20101 17.799 1.5 12 1.5ZM0 12C0 5.37258 5.37258 0 12 0C18.6274 0 24 5.37258 24 12C24 18.6274 18.6274 24 12 24H0.750001C0.473405 24 0.21926 23.8478 0.0887452 23.6039C-0.041769 23.36 -0.0274647 23.0641 0.125963 22.834L0.850923 21.7465C1.17202 21.2649 1.39817 20.9253 1.56155 20.6533C1.72438 20.3822 1.79941 20.2189 1.83734 20.0941C1.89928 19.8902 1.9245 19.7705 1.93506 19.665C1.94562 19.5594 1.94461 19.4371 1.92426 19.225C1.91297 19.1073 1.86239 18.9031 1.71933 18.5122C1.57994 18.1313 1.37625 17.6335 1.09363 16.9432C0.528346 15.5625 0 13.7983 0 12ZM13.25 7C13.25 7.69036 12.6904 8.25 12 8.25C11.3096 8.25 10.75 7.69036 10.75 7C10.75 6.30964 11.3096 5.75 12 5.75C12.6904 5.75 13.25 6.30964 13.25 7ZM12.75 10.75C12.75 10.3358 12.4142 10 12 10C11.5858 10 11.25 10.3358 11.25 10.75V17C11.25 17.4142 11.5858 17.75 12 17.75C12.4142 17.75 12.75 17.4142 12.75 17V10.75Z" fill="white"/>
</svg>
