<svg width="28" height="28" viewBox="0 0 28 28" fill="none" xmlns="http://www.w3.org/2000/svg">
<path fill-rule="evenodd" clip-rule="evenodd" d="M1.16669 1.58337C0.752473 1.58337 0.416687 1.91916 0.416687 2.33337C0.416687 2.74759 0.752473 3.08337 1.16669 3.08337H2.45096C3.43872 3.08337 4.31098 3.7276 4.60147 4.67168L7.96491 15.6029C8.44905 17.1763 9.90281 18.25 11.5491 18.25H19.9346C21.5906 18.25 23.0506 17.1638 23.5264 15.5776L25.6126 8.62358C26.142 6.85915 24.8208 5.08337 22.9786 5.08337H6.41669C6.3771 5.08337 6.33823 5.08644 6.3003 5.09235L6.03513 4.23055C5.55099 2.65708 4.09723 1.58337 2.45096 1.58337H1.16669ZM9.39858 15.1617L6.75908 6.58337H22.9786C23.816 6.58337 24.4165 7.39054 24.1759 8.19256L22.0897 15.1466C21.8042 16.0983 20.9282 16.75 19.9346 16.75H11.5491C10.5613 16.75 9.68906 16.1058 9.39858 15.1617ZM11.6667 21.75C10.7922 21.75 10.0834 22.4589 10.0834 23.3333C10.0834 24.2078 10.7922 24.9166 11.6667 24.9166C12.5411 24.9166 13.25 24.2078 13.25 23.3333C13.25 22.4589 12.5411 21.75 11.6667 21.75ZM8.58335 23.3333C8.58335 21.6304 9.96381 20.25 11.6667 20.25C13.3696 20.25 14.75 21.6304 14.75 23.3333C14.75 25.0362 13.3696 26.4166 11.6667 26.4166C9.96381 26.4166 8.58335 25.0362 8.58335 23.3333ZM21 21.75C20.1256 21.75 19.4167 22.4589 19.4167 23.3333C19.4167 24.2078 20.1256 24.9166 21 24.9166C21.8745 24.9166 22.5834 24.2078 22.5834 23.3333C22.5834 22.4589 21.8745 21.75 21 21.75ZM17.9167 23.3333C17.9167 21.6304 19.2971 20.25 21 20.25C22.7029 20.25 24.0834 21.6304 24.0834 23.3333C24.0834 25.0362 22.7029 26.4166 21 26.4166C19.2971 26.4166 17.9167 25.0362 17.9167 23.3333Z" fill="white"/>
</svg>
