<svg width="26" height="26" viewBox="0 0 26 26" fill="none" xmlns="http://www.w3.org/2000/svg">
<path fill-rule="evenodd" clip-rule="evenodd" d="M13 2.08337C6.97087 2.08337 2.08331 6.97093 2.08331 13C2.08331 19.0292 6.97087 23.9167 13 23.9167C19.0291 23.9167 23.9166 19.0292 23.9166 13C23.9166 6.97093 19.0291 2.08337 13 2.08337ZM0.583313 13C0.583313 6.14251 6.14244 0.583374 13 0.583374C19.8575 0.583374 25.4166 6.14251 25.4166 13C25.4166 19.8576 19.8575 25.4167 13 25.4167C6.14244 25.4167 0.583313 19.8576 0.583313 13ZM11.4444 14.9167C10.1404 14.9167 9.08331 15.9738 9.08331 17.2778C9.08331 17.7227 9.44397 18.0834 9.88887 18.0834H16.1111C16.556 18.0834 16.9166 17.7227 16.9166 17.2778C16.9166 15.9738 15.8595 14.9167 14.5555 14.9167H11.4444ZM7.58331 17.2778C7.58331 15.1454 9.31199 13.4167 11.4444 13.4167H14.5555C16.688 13.4167 18.4166 15.1454 18.4166 17.2778C18.4166 18.5511 17.3844 19.5834 16.1111 19.5834H9.88887C8.61555 19.5834 7.58331 18.5511 7.58331 17.2778ZM11.4166 8.33337C11.4166 7.45892 12.1255 6.75004 13 6.75004C13.8744 6.75004 14.5833 7.45892 14.5833 8.33337C14.5833 9.20782 13.8744 9.91671 13 9.91671C12.1255 9.91671 11.4166 9.20782 11.4166 8.33337ZM13 5.25004C11.2971 5.25004 9.91665 6.6305 9.91665 8.33337C9.91665 10.0363 11.2971 11.4167 13 11.4167C14.7029 11.4167 16.0833 10.0363 16.0833 8.33337C16.0833 6.6305 14.7029 5.25004 13 5.25004Z" fill="white"/>
</svg>
